<svg width="32" height="32" viewBox="0 0 32 32" fill="none" xmlns="http://www.w3.org/2000/svg">
<path d="M4 9.33334V6.66667H6.66667V5.33334C6.66667 3.85334 7.86667 2.66667 9.33333 2.66667H17.3333V12L20.6667 10L24 12V2.66667H25.3333C26.7333 2.66667 28 3.93334 28 5.33334V26.6667C28 28.0667 26.7333 29.3333 25.3333 29.3333H9.33333C7.93333 29.3333 6.66667 28.0667 6.66667 26.6667V25.3333H4V22.6667H6.66667V17.3333H4V14.6667H6.66667V9.33334H4ZM9.33333 14.6667H6.66667V17.3333H9.33333V14.6667ZM9.33333 9.33334V6.66667H6.66667V9.33334H9.33333ZM9.33333 25.3333V22.6667H6.66667V25.3333H9.33333Z" fill="#519D5E"/>
<path d="M17.6172 18.4688H19.1992L21.25 24.5684L23.2949 18.4688H24.877L21.8887 27H20.6055L17.6172 18.4688ZM16.7031 18.4688H18.3145L18.6133 24.791V27H16.7031V18.4688ZM24.1797 18.4688H25.7969V27H23.8809V24.791L24.1797 18.4688Z" fill="white"/>
</svg>
